<?xml version="1.0" encoding="UTF-8"?>
<!DOCTYPE svg  PUBLIC '-//W3C//DTD SVG 1.1//EN'  'http://www.w3.org/Graphics/SVG/1.1/DTD/svg11.dtd'>
<svg enable-background="new 0 0 32.667 32.667" version="1.1" viewBox="0 0 32.667 32.667" xml:space="preserve" xmlns="http://www.w3.org/2000/svg">
	<defs>
	<linearGradient id="PSgrad_0" x1="0%" x2="22.495%" y1="97.437%" y2="0%">
	<stop offset="0%" stop-color="rgb(255,143,90)" stop-opacity="1" />
	<stop offset="99%" stop-color="rgb(255,47,150)" stop-opacity="1" />
	</linearGradient>
	</defs>
	<path  fill="url(#PSgrad_0)" d="m16.333 0c-9.006 0-16.333 7.327-16.333 16.334 0 9.006 7.326 16.333 16.333 16.333 0.557 0 1.007-0.451 1.007-1.006 0-0.556-0.45-1.007-1.007-1.007-7.896 0-14.318-6.424-14.318-14.319 0-7.896 6.422-14.32 14.318-14.32s14.317 6.424 14.317 14.32c0 3.299-1.756 6.571-4.269 7.955-0.913 0.502-1.903 0.751-2.959 0.761 0.634-0.378 1.183-0.887 1.591-1.531 0.08-0.121 0.186-0.226 0.238-0.359 0.328-0.789 0.357-1.684 0.555-2.516 0.243-1.066-4.658-3.143-5.084-1.815-0.154 0.493-0.39 2.048-0.699 2.458-0.275 0.365-0.953 0.193-1.377-0.168-1.117-0.952-2.364-2.352-3.458-3.457l2e-3 -1e-3c-0.028-0.029-0.062-0.062-0.092-0.091-0.031-0.03-0.062-0.062-0.093-0.092-1.106-1.093-2.506-2.338-3.457-3.458-0.36-0.424-0.534-1.1-0.168-1.376 0.41-0.31 1.966-0.543 2.458-0.698 1.326-0.425-0.75-5.329-1.816-5.084-0.832 0.195-1.727 0.225-2.516 0.552-0.134 0.056-0.238 0.16-0.359 0.24-2.799 1.775-3.16 6.083-0.428 9.292 1.041 1.228 2.127 2.416 3.245 3.576l-6e-3 4e-3c0.031 0.031 0.063 0.06 0.095 0.09 0.03 0.031 0.059 0.062 0.088 0.095l6e-3 -6e-3c1.16 1.118 2.535 2.764 4.769 4.255 4.703 3.141 8.312 2.264 10.438 1.098 3.67-2.021 5.312-6.338 5.312-9.719 1e-3 -9.013-7.327-16.34-16.333-16.34z"/>
</svg>
